<mxfile host="app.diagrams.net" modified="2023-09-12T13:24:59.313Z" agent="Mozilla/5.0 (Windows NT 10.0; Win64; x64) AppleWebKit/537.36 (KHTML, like Gecko) Chrome/116.0.0.0 Safari/537.36" etag="Jw4HKgFH0YXCooL45Qgc" version="21.7.2" type="github">
  <diagram name="Page-1" id="kI56bV-eI_XTsjuPS-jv">
    <mxGraphModel dx="1500" dy="820" grid="1" gridSize="10" guides="1" tooltips="1" connect="1" arrows="1" fold="1" page="1" pageScale="1" pageWidth="827" pageHeight="1169" math="0" shadow="0">
      <root>
        <mxCell id="0" />
        <mxCell id="1" parent="0" />
        <mxCell id="cMQD0sUQLwF3h279yDKl-3" value="" style="outlineConnect=0;dashed=0;verticalLabelPosition=bottom;verticalAlign=top;align=center;html=1;shape=mxgraph.aws3.table;fillColor=#2E73B8;gradientColor=none;" vertex="1" parent="1">
          <mxGeometry x="60" y="110" width="600" height="246" as="geometry" />
        </mxCell>
        <mxCell id="cMQD0sUQLwF3h279yDKl-4" value="&lt;font style=&quot;font-size: 36px;&quot;&gt;TRABAJOS&lt;/font&gt;" style="text;html=1;strokeColor=none;fillColor=none;align=center;verticalAlign=middle;whiteSpace=wrap;rounded=0;" vertex="1" parent="1">
          <mxGeometry x="384" y="40" width="60" height="30" as="geometry" />
        </mxCell>
        <mxCell id="cMQD0sUQLwF3h279yDKl-6" value="" style="shape=image;html=1;verticalAlign=top;verticalLabelPosition=bottom;labelBackgroundColor=#ffffff;imageAspect=0;aspect=fixed;image=https://cdn1.iconfinder.com/data/icons/unicons-line-vol-3/24/edit-128.png;fillColor=#FFFF00;" vertex="1" parent="1">
          <mxGeometry x="680" y="120" width="38" height="38" as="geometry" />
        </mxCell>
        <mxCell id="cMQD0sUQLwF3h279yDKl-7" value="" style="shape=image;html=1;verticalAlign=top;verticalLabelPosition=bottom;labelBackgroundColor=#ffffff;imageAspect=0;aspect=fixed;image=https://cdn1.iconfinder.com/data/icons/unicons-line-vol-3/24/edit-128.png;fillColor=#FFFF00;" vertex="1" parent="1">
          <mxGeometry x="680" y="180" width="38" height="38" as="geometry" />
        </mxCell>
        <mxCell id="cMQD0sUQLwF3h279yDKl-8" value="" style="shape=image;html=1;verticalAlign=top;verticalLabelPosition=bottom;labelBackgroundColor=#ffffff;imageAspect=0;aspect=fixed;image=https://cdn1.iconfinder.com/data/icons/unicons-line-vol-3/24/edit-128.png;fillColor=#FFFF00;" vertex="1" parent="1">
          <mxGeometry x="680" y="240" width="38" height="38" as="geometry" />
        </mxCell>
        <mxCell id="cMQD0sUQLwF3h279yDKl-11" value="" style="shape=image;html=1;verticalAlign=top;verticalLabelPosition=bottom;labelBackgroundColor=#ffffff;imageAspect=0;aspect=fixed;image=https://cdn1.iconfinder.com/data/icons/unicons-line-vol-3/24/edit-128.png;fillColor=#FFFF00;" vertex="1" parent="1">
          <mxGeometry x="680" y="310" width="38" height="38" as="geometry" />
        </mxCell>
      </root>
    </mxGraphModel>
  </diagram>
</mxfile>
